# xmcd CD database file
#
# Track frame offsets:
#	150
#	15610
#	29733
#	48130
#	68113
#	87020
#	104726
#	123884
#	143106
#	158412
#	180169
#	195719
#
# Disc length: 2828 seconds
#
# Revision: 0
# Processed by: cddbd v1.5.2PL0 Copyright (c) Steve Scherf et al.
# Submitted via: CDex 1.70beta2
#
DISCID=930b0a0c
DTITLE=Alexander Stewart - I Thought About You
DYEAR=2016
DGENRE=Jazz
TTITLE0=Part Time Lover
TTITLE1=I Just Want To Make Love To You
TTITLE2=I Thought About You
TTITLE3=Brother Can You Spare A Dime
TTITLE4=Human
TTITLE5=The Look Of Love
TTITLE6=How Glad I Am
TTITLE7=Speed Of Darkness
TTITLE8=The Sweetest Feeling
TTITLE9=Fragments
TTITLE10=Suitcase Of Dreams
TTITLE11=A House Is Not A Home
EXTD=YEAR: 2016
EXTT0=
EXTT1=
EXTT2=
EXTT3=
EXTT4=
EXTT5=
EXTT6=
EXTT7=
EXTT8=
EXTT9=
EXTT10=
EXTT11=
PLAYORDER=
